<svg width="46" height="23" viewBox="0 0 46 23" fill="none" xmlns="http://www.w3.org/2000/svg">
<path d="M22.9529 4.71971C23.0147 4.77449 23.0579 4.84652 23.0766 4.92609C23.0954 5.00567 23.0887 5.08896 23.0577 5.16474L17.9014 22.0988C17.8365 22.2836 17.7036 22.4382 17.5289 22.5324C17.3868 22.6256 17.2222 22.6807 17.0517 22.6922H0.663163C0.523204 22.6856 0.390608 22.6287 0.290691 22.5324C0.231253 22.4785 0.189537 22.4084 0.170875 22.3313C0.152213 22.254 0.157469 22.1731 0.185939 22.0988L5.35391 5.16474C5.41346 4.97752 5.54212 4.81882 5.71474 4.71971C5.85924 4.63317 6.023 4.58227 6.19196 4.57136H22.5805C22.7193 4.57267 22.8525 4.62571 22.9529 4.71971ZM14.3978 18.6869L17.4823 8.57664H8.84581L5.77292 18.6869H14.3978ZM38.5965 4.89087C38.6525 4.95457 38.7223 5.00509 38.801 5.03868C38.8796 5.07226 38.9648 5.08805 39.0505 5.08485H41.1805C41.2617 5.08563 41.3416 5.06613 41.4129 5.0282C41.4842 4.99026 41.5444 4.93514 41.5879 4.86804C41.6257 4.81563 41.6525 4.7563 41.6665 4.69357C41.6804 4.63085 41.6814 4.56601 41.6694 4.5029L41.2504 1.49037C41.2105 1.35095 41.1388 1.2222 41.0409 1.11381C40.9849 1.0501 40.9151 0.999582 40.8365 0.965997C40.7579 0.932412 40.6726 0.916632 40.5869 0.919819H38.4569C38.3758 0.919047 38.2958 0.938547 38.2245 0.976482C38.1532 1.01442 38.093 1.06953 38.0495 1.13664C37.968 1.29639 37.9331 1.39908 37.968 1.49037L38.3987 4.5029C38.4208 4.64958 38.4901 4.78551 38.5965 4.89087ZM45.3592 1.46755C45.3192 1.32812 45.2476 1.19937 45.1496 1.09098C45.0961 1.02751 45.0283 0.977007 44.9516 0.943362C44.8749 0.909724 44.7913 0.893854 44.7073 0.896997H42.5656C42.4859 0.894769 42.407 0.913744 42.3373 0.951912C42.2676 0.990079 42.2098 1.04603 42.1699 1.11381C42.0925 1.21504 42.0589 1.3422 42.0768 1.46755L42.5074 4.48007C42.5345 4.62521 42.6031 4.75979 42.7053 4.86804C42.7622 4.9305 42.8323 4.98018 42.9107 5.01366C42.989 5.04714 43.0738 5.06364 43.1592 5.06202H45.301C45.3806 5.06306 45.4589 5.04358 45.5284 5.00553C45.5979 4.96747 45.6559 4.9122 45.6967 4.84523C45.7372 4.79418 45.7655 4.73487 45.7796 4.67169C45.7937 4.60851 45.7932 4.54304 45.7782 4.48007L45.3592 1.46755ZM36.7226 6.03198L36.513 4.54854H26.1888C26.0267 4.5573 25.8698 4.60853 25.7348 4.69688C25.6491 4.74271 25.5744 4.80624 25.5162 4.88307C25.458 4.9599 25.4174 5.04821 25.3973 5.14191L24.5359 7.97184C24.5016 8.04256 24.4898 8.12191 24.5023 8.19931C24.5148 8.27671 24.5508 8.34856 24.6058 8.40549C24.7039 8.49594 24.832 8.54866 24.9666 8.55384H37.5141L34.4296 18.6641H21.917C21.7557 18.6677 21.5986 18.7151 21.4631 18.8009C21.2985 18.9035 21.1783 19.0619 21.1256 19.246L20.2526 22.076C20.2241 22.1486 20.2166 22.2275 20.231 22.304C20.2454 22.3805 20.281 22.4516 20.334 22.5095C20.4291 22.6061 20.5582 22.6632 20.6949 22.6693H37.1299C37.2999 22.655 37.4638 22.6001 37.6071 22.5095C37.779 22.4149 37.908 22.26 37.968 22.076L42.6936 6.60253H37.3744C37.29 6.60416 37.2062 6.5888 37.1281 6.5574C37.05 6.52599 36.9794 6.4792 36.9205 6.41994C36.8242 6.31647 36.7562 6.19089 36.7226 6.0548V6.03198Z" fill="white"/>
</svg>
